<svg width="180" height="37" viewBox="0 0 180 37" fill="none" xmlns="http://www.w3.org/2000/svg">
<path fill-rule="evenodd" clip-rule="evenodd" d="M180 8.82196C179.994 8.71799 179.962 8.61727 179.906 8.52917C179.851 8.44108 179.775 8.36855 179.685 8.31805C179.277 8.11105 178.682 7.96997 177.471 7.96997C174.738 7.96997 172.321 9.33795 171.266 11.627V8.83093C171.267 8.77329 171.255 8.71616 171.234 8.66284C171.212 8.60953 171.18 8.56122 171.14 8.52039C171.099 8.47955 171.051 8.44709 170.998 8.42499C170.946 8.40288 170.889 8.39148 170.832 8.39148H166.74C166.682 8.39148 166.626 8.40288 166.573 8.42499C166.52 8.44709 166.472 8.47955 166.432 8.52039C166.391 8.56122 166.359 8.60953 166.338 8.66284C166.316 8.71616 166.305 8.77329 166.305 8.83093V27.68C166.305 27.9215 166.499 28.118 166.74 28.118H171.027C171.084 28.118 171.14 28.1067 171.193 28.0847C171.246 28.0626 171.294 28.0303 171.334 27.9896C171.374 27.949 171.406 27.9007 171.428 27.8475C171.45 27.7944 171.461 27.7375 171.461 27.68V19.202C171.461 15.4145 174.073 13.532 177.471 13.532C178.264 13.532 179.055 13.7091 179.453 13.8411C179.725 13.9311 180 13.7059 180 13.4164V8.82196ZM152.606 23.492C149.675 23.492 147.41 21.4026 147.41 18.2466C147.41 15.0906 149.677 12.9995 152.606 12.9995C155.535 12.9995 157.801 15.0906 157.801 18.2466C157.801 21.4026 155.535 23.4935 152.606 23.4935V23.492ZM152.606 7.90845C146.59 7.90845 142.099 12.0921 142.099 18.2466C142.099 24.4011 146.591 28.5831 152.606 28.5831C158.619 28.5831 163.111 24.401 163.111 18.248C163.111 12.092 158.619 7.90845 152.606 7.90845ZM128.754 23.4935C125.823 23.4935 123.557 21.4026 123.557 18.2466C123.557 15.0906 125.823 12.9995 128.754 12.9995C131.683 12.9995 133.947 15.0906 133.947 18.2466C133.947 21.4026 131.683 23.4935 128.754 23.4935ZM128.754 7.90845C122.738 7.90845 118.245 12.0921 118.245 18.2466C118.245 24.4011 122.738 28.5831 128.754 28.5831C134.766 28.5831 139.259 24.4011 139.259 18.2466C139.259 12.0921 134.766 7.90845 128.754 7.90845ZM104.934 23.5414C102.005 23.5414 99.8167 21.4506 99.8167 18.2556C99.8167 15.0591 102.005 12.968 104.934 12.968C107.826 12.968 110.051 14.9811 110.051 18.2556C110.051 21.4896 107.826 23.5414 104.934 23.5414ZM114.617 0.501465H110.33C110.214 0.501465 110.104 0.547681 110.022 0.629822C109.941 0.711963 109.895 0.823288 109.895 0.939453V11.2325C108.567 9.33804 106.38 7.87695 103.335 7.87695C98.5686 7.87695 94.5059 11.5881 94.5059 18.2556C94.5059 24.9231 98.5671 28.631 103.411 28.631C106.263 28.631 108.489 27.3681 109.897 25.3566V27.68C109.897 27.9215 110.09 28.118 110.328 28.118H114.617C114.855 28.118 115.05 27.923 115.05 27.68V0.939453C115.05 0.823548 115.004 0.712469 114.923 0.630371C114.842 0.548273 114.732 0.501862 114.617 0.501465ZM91.6661 22.1465C91.6661 26.6465 88.4246 28.5785 83.2314 28.5785C79.6418 28.5785 76.5551 27.6035 74.7893 25.5845C74.7225 25.5053 74.6851 25.4054 74.6832 25.3015C74.6813 25.1975 74.715 25.0961 74.7789 25.0145L77.2572 21.7655C77.2954 21.7164 77.3438 21.6763 77.3989 21.6479C77.454 21.6196 77.5145 21.6037 77.5764 21.6013C77.6382 21.5988 77.6998 21.6099 77.757 21.6339C77.8141 21.6578 77.8653 21.6941 77.9072 21.7401C79.2163 23.0946 81.2306 23.9225 83.7387 23.9225C85.1817 23.9225 86.3539 23.5294 86.3539 22.424C86.3539 21.3589 85.3007 21.1221 82.019 20.4111C79.1286 19.8201 75.5345 18.479 75.5345 14.1785C75.5345 10.193 78.6615 7.90552 83.7758 7.90552C87.1423 7.90552 89.5626 8.93153 91.2674 10.5455C91.4311 10.7 91.446 10.961 91.3076 11.1395L88.9557 14.2236C88.9212 14.2709 88.8774 14.3105 88.827 14.3398C88.7766 14.3692 88.7206 14.3877 88.6628 14.3942C88.6049 14.4007 88.5463 14.3951 88.4907 14.3776C88.4351 14.36 88.3837 14.331 88.3398 14.2924C87.1869 13.2529 85.2694 12.6005 83.3861 12.6005C81.7855 12.6005 80.887 13.1136 80.887 13.9806C80.887 14.9676 81.9431 15.2045 85.4182 15.9545C88.8144 16.7045 91.6661 18.005 91.6661 22.148V22.1465ZM71.8423 22.1584C71.8423 26.6569 68.5993 28.5906 63.4061 28.5906C59.818 28.5906 56.7312 27.6155 54.9654 25.595C54.8988 25.5161 54.8614 25.4164 54.8592 25.3128C54.857 25.2092 54.8903 25.1081 54.9535 25.0264L57.4319 21.7759C57.4704 21.7272 57.5188 21.6874 57.574 21.6593C57.6292 21.6312 57.6897 21.6156 57.7515 21.6133C57.8132 21.6111 57.8748 21.6222 57.9318 21.6461C57.9889 21.6701 58.0401 21.7062 58.082 21.752C59.3926 23.105 61.4068 23.9346 63.9134 23.9346C65.3578 23.9346 66.5301 23.5416 66.5301 22.4346C66.5301 21.3696 65.4754 21.134 62.1952 20.423C59.3033 19.8305 55.7092 18.4894 55.7092 14.1904C55.7092 10.2049 58.8362 7.91742 63.9521 7.91742C67.317 7.91742 69.7359 8.94193 71.4422 10.5574C71.6058 10.7119 71.6206 10.9714 71.4838 11.1514L69.1304 14.2355C68.9817 14.4305 68.699 14.4695 68.516 14.3045C67.3616 13.265 65.4457 12.611 63.5624 12.611C61.9602 12.611 61.0616 13.1255 61.0616 13.9925C61.0616 14.9795 62.1179 15.2166 65.5929 15.9666C68.9906 16.7151 71.8409 18.0169 71.8409 22.1584H71.8423ZM46.1469 20.1485C46.1469 22.3175 44.3916 24.212 41.6559 24.212C39.8589 24.212 38.883 23.3824 38.883 22.1194C38.883 21.0154 39.7041 20.1859 41.3048 19.9489L46.1469 19.358V20.147V20.1485ZM42.7507 7.95642C38.6598 7.95642 35.579 9.33941 34.2015 12.0739C34.1561 12.1688 34.1453 12.2769 34.1711 12.379C34.197 12.4811 34.2578 12.5707 34.3428 12.632L37.4683 14.8881C37.6646 15.0291 37.9413 14.9824 38.0588 14.7679C38.9276 13.1899 40.8704 12.6514 42.7507 12.6514C45.055 12.6514 46.1469 13.4795 46.1469 14.624V14.939C46.1469 15.413 45.8747 15.6499 45.1324 15.7294L39.7815 16.202C36.1889 16.556 33.5335 18.8061 33.5335 22.3956C33.5335 26.0256 36.2663 28.5499 40.1326 28.5499C43.1792 28.5499 45.1324 27.0516 46.1469 25.4736V27.7175C46.1469 27.9605 46.3403 28.157 46.5813 28.157H50.8686C50.9838 28.157 51.0943 28.1108 51.1758 28.0286C51.2572 27.9465 51.303 27.8352 51.303 27.719V15.9651C51.303 10.4811 48.4512 7.95642 42.7493 7.95642H42.7507ZM29.996 0.937988V27.6785C29.996 27.92 29.8027 28.1165 29.5617 28.1165H25.2357C25.1205 28.1165 25.01 28.0703 24.9285 27.9882C24.8471 27.906 24.8013 27.7947 24.8013 27.6785V0.930481C24.8013 0.691981 24.9917 0.5 25.2268 0.5H29.5617C29.8012 0.5 29.996 0.694988 29.996 0.937988ZM10.4281 23.5206C7.49754 23.5206 5.31075 21.4295 5.31075 18.2345C5.31075 15.0395 7.49902 12.947 10.4281 12.947C13.3587 12.947 15.5052 14.96 15.5052 18.2345C15.5052 21.4685 13.3572 23.5206 10.4281 23.5206ZM20.1094 8.37042H15.8281C15.7113 8.37042 15.5994 8.41734 15.5168 8.50061C15.4342 8.58388 15.3878 8.6967 15.3878 8.81445V11.1335C14.2944 9.35748 12.0288 7.89655 9.02232 7.89655C4.17868 7.89655 0 11.567 0 18.1565C0 24.704 3.98378 28.2936 9.17849 28.2936C11.9901 28.2936 14.1768 27.11 15.4666 25.256V26.5189C15.4666 29.3584 14.098 31.6085 9.72444 31.6085C7.52577 31.6085 5.75999 30.869 4.2114 29.4845C4.16516 29.4415 4.11001 29.4093 4.04996 29.3904C3.98991 29.3714 3.92651 29.3661 3.86419 29.3748C3.80187 29.3836 3.74221 29.4061 3.68959 29.4409C3.63697 29.4757 3.59266 29.5219 3.55984 29.576L1.61853 32.8641C1.36713 33.2886 1.40128 33.5286 1.55897 33.6681C3.55533 35.4186 6.14976 36.5 9.92084 36.5C18.122 36.5 20.5438 31.886 20.5438 26.795V8.81006C20.544 8.75241 20.5329 8.69528 20.5112 8.64197C20.4895 8.58865 20.4575 8.54016 20.4171 8.49933C20.3768 8.4585 20.3288 8.42604 20.276 8.40393C20.2232 8.38183 20.1666 8.37042 20.1094 8.37042Z" fill="#0CAA41"/>
</svg>
