<svg width="109" height="109" viewBox="0 0 109 109" fill="none" xmlns="http://www.w3.org/2000/svg">
<path d="M41.7473 54.1689C40.073 54.1689 38.7239 53.98 37.7 53.6021C36.6804 53.2241 35.9202 52.5825 35.4192 51.6772C34.9226 50.772 34.6743 49.5239 34.6743 47.9331C34.6743 46.7114 34.8193 45.6941 35.1094 44.8811C35.3994 44.0637 35.8411 43.4155 36.4343 42.9365C37.032 42.4531 37.7944 42.1082 38.7217 41.9016C39.6533 41.6907 40.7871 41.5852 42.123 41.5852C43.9951 41.5852 45.4541 41.7544 46.5 42.0928C47.5503 42.4312 48.3303 43.0925 48.8401 44.0769C49.3499 45.0569 49.6047 46.5137 49.6047 48.4473V52.2244C49.6047 54.4128 49.5037 56.1311 49.3015 57.3792C49.0994 58.6272 48.7236 59.605 48.1743 60.3125C47.625 61.0156 46.8516 61.5056 45.854 61.7825C44.8564 62.0549 43.4875 62.1912 41.7473 62.1912C40.5388 62.1912 39.5259 62.145 38.7085 62.0527C37.8911 61.9648 37.1682 61.7649 36.5398 61.4529C35.9158 61.1409 35.4302 60.6619 35.083 60.0159C34.7402 59.3655 34.5688 58.5063 34.5688 57.4385C34.5688 57.355 34.5732 57.2473 34.582 57.1155C34.5908 56.9836 34.5952 56.8848 34.5952 56.8188H36.7507C36.7507 56.8672 36.7463 56.9485 36.7375 57.0627C36.7288 57.177 36.7244 57.2649 36.7244 57.3264C36.7244 57.9592 36.8101 58.4668 36.9814 58.8491C37.1572 59.2314 37.4385 59.5215 37.8252 59.7192C38.2119 59.9126 38.7151 60.0444 39.3347 60.1147C39.9543 60.1851 40.7585 60.2202 41.7473 60.2202C42.8987 60.2202 43.8281 60.1455 44.5356 59.9961C45.2432 59.8423 45.8013 59.5654 46.21 59.1655C46.623 58.7656 46.9175 58.1965 47.0933 57.4583C47.2734 56.7156 47.3635 55.718 47.3635 54.4656V52.2244C47.1482 52.699 46.8735 53.0703 46.5396 53.3384C46.21 53.6064 45.6716 53.813 44.9246 53.958C44.1819 54.0986 43.1228 54.1689 41.7473 54.1689ZM47.3635 47.9067C47.3635 46.7202 47.1965 45.8171 46.8625 45.1975C46.533 44.5735 45.9968 44.145 45.2542 43.9121C44.5159 43.6748 43.4722 43.5562 42.123 43.5562C40.8179 43.5562 39.7917 43.6836 39.0447 43.9385C38.302 44.1934 37.7637 44.635 37.4297 45.2634C37.0957 45.8875 36.9243 46.7598 36.9155 47.8804C36.9155 48.7461 37.0034 49.458 37.1792 50.0161C37.3594 50.5742 37.6494 51.0159 38.0493 51.3411C38.4492 51.6619 38.9766 51.8904 39.6313 52.0266C40.2861 52.1584 41.1167 52.2244 42.123 52.2244C43.4897 52.2244 44.5444 52.0991 45.2871 51.8486C46.0298 51.5981 46.5615 51.1653 46.8823 50.55C47.2031 49.9348 47.3635 49.0537 47.3635 47.9067ZM53.9092 52.0068V41.8818H67.5212V43.8528H56.0713V49.825C56.6118 49.0999 57.3149 48.6406 58.1807 48.4473C59.0508 48.2495 60.1121 48.1506 61.3645 48.1506C62.9949 48.1506 64.3132 48.3594 65.3196 48.7769C66.3303 49.1899 67.0752 49.8667 67.5542 50.8071C68.0332 51.7476 68.2727 53.0044 68.2727 54.5776C68.2727 56.5903 68.0728 58.135 67.6729 59.2117C67.2729 60.2839 66.5544 61.0486 65.5173 61.5056C64.4802 61.9626 62.9685 62.1912 60.9822 62.1912C59.1233 62.1912 57.6863 62.0747 56.6711 61.8418C55.656 61.6045 54.8694 61.0552 54.3113 60.1938C53.7576 59.3281 53.4807 57.9944 53.4807 56.1926H55.7219C55.7219 57.1067 55.7791 57.812 55.8933 58.3086C56.012 58.8052 56.2427 59.1941 56.5854 59.4753C56.9326 59.7522 57.4446 59.9456 58.1213 60.0554C58.7981 60.1653 59.7517 60.2202 60.9822 60.2202C62.2126 60.2202 63.186 60.1038 63.9023 59.8708C64.6187 59.6379 65.1482 59.2073 65.491 58.5789C65.8337 57.946 66.0051 57.0342 66.0051 55.8433C66.0051 54.3052 65.8865 53.1406 65.6492 52.3496C65.4163 51.5542 64.9724 50.9851 64.3176 50.6423C63.6628 50.2952 62.6873 50.1216 61.3909 50.1216C59.9758 50.1216 58.9102 50.1787 58.1938 50.293C57.4819 50.4072 56.9832 50.5918 56.6975 50.8467C56.4163 51.1016 56.2075 51.4883 56.0713 52.0068H53.9092ZM75.4182 51.9277C74.179 51.9277 73.2473 51.8157 72.6233 51.5916C71.9993 51.3674 71.5708 50.9873 71.3379 50.4512C71.105 49.915 70.9885 49.1394 70.9885 48.1243V45.5007C70.9885 44.4768 71.105 43.7012 71.3379 43.1738C71.5708 42.6421 72.0015 42.2686 72.6299 42.0532C73.2583 41.8335 74.1877 41.7236 75.4182 41.7236C76.6267 41.7236 77.5364 41.8335 78.1472 42.0532C78.7625 42.2686 79.1799 42.6399 79.3997 43.1672C79.6238 43.6902 79.7358 44.468 79.7358 45.5007V48.1243C79.7358 48.8889 79.6765 49.5107 79.5579 49.9897C79.4392 50.4688 79.2305 50.8489 78.9316 51.1301C78.6328 51.4114 78.2021 51.6157 77.6396 51.7432C77.0815 51.8662 76.3411 51.9277 75.4182 51.9277ZM78.4373 48.5V45.1777C78.4373 44.4658 78.323 43.9407 78.0945 43.6023C77.866 43.2639 77.5474 43.0508 77.1387 42.9629C76.73 42.875 76.1565 42.8311 75.4182 42.8311C74.6536 42.8311 74.0625 42.8772 73.645 42.9695C73.2275 43.0618 72.9001 43.2771 72.6628 43.6155C72.4299 43.9495 72.3135 44.4702 72.3135 45.1777V48.6648C72.3179 49.3459 72.4365 49.8425 72.6694 50.1545C72.9067 50.4622 73.2231 50.6511 73.6187 50.7214C74.0186 50.7874 74.6184 50.8203 75.4182 50.8203C76.1521 50.8203 76.7234 50.7764 77.1321 50.6885C77.5452 50.6006 77.866 50.3918 78.0945 50.0623C78.323 49.7283 78.4373 49.2075 78.4373 48.5ZM89.8608 41.7764L76.1697 62H74.792L88.4304 41.7764H89.8608ZM89.3203 62.0264C88.0986 62.0264 87.1758 61.9143 86.5518 61.6902C85.9277 61.4617 85.4993 61.0815 85.2664 60.5498C85.0334 60.0137 84.917 59.2468 84.917 58.2493V55.6257C84.917 54.593 85.0334 53.8108 85.2664 53.2791C85.4993 52.7429 85.9277 52.3672 86.5518 52.1519C87.1758 51.9321 88.0986 51.8223 89.3203 51.8223C90.542 51.8223 91.4648 51.9409 92.0889 52.1782C92.7173 52.4111 93.1458 52.7935 93.3743 53.3252C93.6072 53.8569 93.7236 54.6238 93.7236 55.6257V58.2493C93.7104 59.0139 93.6401 59.6335 93.5127 60.1082C93.3896 60.5784 93.1765 60.9541 92.8733 61.2354C92.5701 61.5122 92.1372 61.7144 91.5747 61.8418C91.0122 61.9648 90.2607 62.0264 89.3203 62.0264ZM92.3723 58.625V55.2764C92.3723 54.5776 92.2581 54.0591 92.0295 53.7207C91.801 53.3779 91.4824 53.1604 91.0737 53.0681C90.665 52.9758 90.0806 52.9297 89.3203 52.9297C88.5864 52.9297 88.0063 52.978 87.5801 53.0747C87.1582 53.167 86.8286 53.3823 86.5913 53.7207C86.3584 54.0547 86.2419 54.5732 86.2419 55.2764V58.7568C86.2463 59.4468 86.365 59.9456 86.5979 60.2532C86.8352 60.5608 87.1494 60.7498 87.5405 60.8201C87.936 60.886 88.5293 60.9189 89.3203 60.9189C90.0981 60.9189 90.687 60.8772 91.0869 60.7937C91.4912 60.7102 91.8054 60.5037 92.0295 60.1741C92.2581 59.8401 92.3723 59.3237 92.3723 58.625Z" fill="#0DAA41"/>
<path d="M96.0662 33.6554C98.8036 39.1139 100.439 45.0582 100.879 51.1488C101.319 57.2394 100.555 63.357 98.6311 69.1524C96.707 74.9478 93.6601 80.3074 89.6646 84.9253C85.6691 89.5432 80.8032 93.3289 75.3446 96.0662C69.8861 98.8036 63.9418 100.439 57.8512 100.879C51.7606 101.319 45.643 100.555 39.8476 98.6311C34.0522 96.707 28.6926 93.6601 24.0747 89.6646C19.4568 85.6691 15.6711 80.8032 12.9338 75.3446C10.1964 69.8861 8.56101 63.9418 8.12092 57.8512C7.68083 51.7606 8.44468 45.643 10.3689 39.8476C12.293 34.0522 15.3399 28.6926 19.3354 24.0747C23.3309 19.4568 28.1968 15.6711 33.6554 12.9338C39.1139 10.1964 45.0582 8.56101 51.1488 8.12092C57.2394 7.68083 63.357 8.44468 69.1524 10.3689C74.9478 12.293 80.3074 15.3399 84.9253 19.3354C89.5432 23.3309 93.3289 28.1968 96.0662 33.6554L96.0662 33.6554Z" stroke="#D3E0D7" stroke-width="16"/>
<mask id="path-3-inside-1_1_243572" fill="white">
<path d="M54.5 0C68.2141 1.63539e-07 81.4241 5.17029 91.4947 14.4794C101.565 23.7886 107.756 36.5522 108.832 50.224C109.908 63.8958 105.79 77.4708 97.2997 88.2407C88.8094 99.0106 76.5709 106.184 63.0256 108.329C49.4804 110.474 35.6242 107.434 24.2214 99.815C12.8185 92.1959 4.70728 80.5579 1.50582 67.2227C-1.69565 53.8875 0.248 39.8355 6.94902 27.87C13.65 15.9046 24.6158 6.90524 37.6587 2.66738L42.6397 17.9973C33.4543 20.9818 25.7318 27.3195 21.0126 35.7461C16.2935 44.1727 14.9247 54.0686 17.1793 63.4598C19.4339 72.851 25.1462 81.047 33.1765 86.4127C41.2069 91.7785 50.965 93.9195 60.5041 92.4086C70.0432 90.8978 78.6621 85.8462 84.6414 78.2616C90.6206 70.677 93.5206 61.1169 92.7629 51.4887C92.0051 41.8604 87.6453 32.8717 80.5532 26.3159C73.4611 19.76 64.158 16.1188 54.5 16.1188V0Z"/>
</mask>
<path d="M54.5 0C68.2141 1.63539e-07 81.4241 5.17029 91.4947 14.4794C101.565 23.7886 107.756 36.5522 108.832 50.224C109.908 63.8958 105.79 77.4708 97.2997 88.2407C88.8094 99.0106 76.5709 106.184 63.0256 108.329C49.4804 110.474 35.6242 107.434 24.2214 99.815C12.8185 92.1959 4.70728 80.5579 1.50582 67.2227C-1.69565 53.8875 0.248 39.8355 6.94902 27.87C13.65 15.9046 24.6158 6.90524 37.6587 2.66738L42.6397 17.9973C33.4543 20.9818 25.7318 27.3195 21.0126 35.7461C16.2935 44.1727 14.9247 54.0686 17.1793 63.4598C19.4339 72.851 25.1462 81.047 33.1765 86.4127C41.2069 91.7785 50.965 93.9195 60.5041 92.4086C70.0432 90.8978 78.6621 85.8462 84.6414 78.2616C90.6206 70.677 93.5206 61.1169 92.7629 51.4887C92.0051 41.8604 87.6453 32.8717 80.5532 26.3159C73.4611 19.76 64.158 16.1188 54.5 16.1188V0Z" fill="white"/>
<path d="M54.5 0C68.2141 1.63539e-07 81.4241 5.17029 91.4947 14.4794C101.565 23.7886 107.756 36.5522 108.832 50.224C109.908 63.8958 105.79 77.4708 97.2997 88.2407C88.8094 99.0106 76.5709 106.184 63.0256 108.329C49.4804 110.474 35.6242 107.434 24.2214 99.815C12.8185 92.1959 4.70728 80.5579 1.50582 67.2227C-1.69565 53.8875 0.248 39.8355 6.94902 27.87C13.65 15.9046 24.6158 6.90524 37.6587 2.66738L42.6397 17.9973C33.4543 20.9818 25.7318 27.3195 21.0126 35.7461C16.2935 44.1727 14.9247 54.0686 17.1793 63.4598C19.4339 72.851 25.1462 81.047 33.1765 86.4127C41.2069 91.7785 50.965 93.9195 60.5041 92.4086C70.0432 90.8978 78.6621 85.8462 84.6414 78.2616C90.6206 70.677 93.5206 61.1169 92.7629 51.4887C92.0051 41.8604 87.6453 32.8717 80.5532 26.3159C73.4611 19.76 64.158 16.1188 54.5 16.1188V0Z" stroke="#0DAA41" stroke-width="32" mask="url(#path-3-inside-1_1_243572)"/>
<path d="M54.5 0C68.2141 1.63539e-07 81.4241 5.17029 91.4947 14.4794C101.565 23.7886 107.756 36.5522 108.832 50.224C109.908 63.8958 105.79 77.4708 97.2997 88.2407C88.8094 99.0106 76.5709 106.184 63.0256 108.329C49.4804 110.474 35.6242 107.434 24.2214 99.815C12.8185 92.1959 4.70728 80.5579 1.50582 67.2227C-1.69565 53.8875 0.248 39.8355 6.94902 27.87C13.65 15.9046 24.6158 6.90524 37.6587 2.66738L42.6397 17.9973C33.4543 20.9818 25.7318 27.3195 21.0126 35.7461C16.2935 44.1727 14.9247 54.0686 17.1793 63.4598C19.4339 72.851 25.1462 81.047 33.1765 86.4127C41.2069 91.7785 50.965 93.9195 60.5041 92.4086C70.0432 90.8978 78.6621 85.8462 84.6414 78.2616C90.6206 70.677 93.5206 61.1169 92.7629 51.4887C92.0051 41.8604 87.6453 32.8717 80.5532 26.3159C73.4611 19.76 64.158 16.1188 54.5 16.1188V0Z" stroke="#0DAA41" stroke-width="32" mask="url(#path-3-inside-1_1_243572)"/>
</svg>
