<svg width="44" height="45" viewBox="0 0 44 45" fill="none" xmlns="http://www.w3.org/2000/svg">
<path d="M2.60938 32.1349V40.2556H13.9697V32.1349L8.28954 29.0201L2.60938 32.1349Z" stroke="#1A2578" stroke-width="1.5" stroke-linecap="round" stroke-linejoin="round"/>
<path d="M10.3812 33.9267H6.4209V40.2538H10.3812V33.9267Z" stroke="#1A2578" stroke-width="1.5" stroke-linecap="round" stroke-linejoin="round"/>
<path d="M21.4865 32.3749C26.7816 32.3749 31.0741 28.0824 31.0741 22.7874C31.0741 17.4923 26.7816 13.1998 21.4865 13.1998C16.1914 13.1998 11.8989 17.4923 11.8989 22.7874C11.8989 28.0824 16.1914 32.3749 21.4865 32.3749Z" stroke="#BF0830" stroke-width="1.5" stroke-linecap="round" stroke-linejoin="round"/>
<path d="M15.3164 24.6627L19.0925 28.4372L27.8474 19.6823L25.8792 17.7142L19.0477 24.5442L17.2557 22.7522L15.3164 24.6627Z" stroke="#BF0830" stroke-width="1.5" stroke-linecap="round" stroke-linejoin="round"/>
<path d="M40.4204 3.987H29.2202V14.9662H40.4204V3.987Z" stroke="#1A2578" stroke-width="1.5" stroke-linecap="round" stroke-linejoin="round"/>
<path d="M36.9131 10.3125H32.7271V14.9662H36.9131V10.3125Z" stroke="#1A2578" stroke-width="1.5" stroke-linecap="round" stroke-linejoin="round"/>
<path d="M4.74756 22.4992C4.74746 18.2904 6.33277 14.2361 9.18771 11.1438C12.0427 8.05141 15.9577 6.14795 20.153 5.81256" stroke="#1A2578" stroke-width="1.5" stroke-linecap="round" stroke-linejoin="round"/>
<path d="M16.7999 11.4751L15.8471 10.6936L19.6968 6.00314L14.7373 2.50567L15.4483 1.5L21.4888 5.76133L16.7999 11.4751Z" fill="#1A2578"/>
<path d="M38.2282 22.4993C38.2284 26.7082 36.6431 30.7627 33.7882 33.8553C30.9333 36.9479 27.0182 38.8517 22.8228 39.1875" stroke="#1A2578" stroke-width="1.5" stroke-linecap="round" stroke-linejoin="round"/>
<path d="M26.1757 33.5249L27.1285 34.3048L23.2788 38.9969L28.2383 42.4944L27.5273 43.5L21.4868 39.2387L26.1757 33.5249Z" fill="#1A2578"/>
</svg>
