<svg width="44" height="45" viewBox="0 0 44 45" fill="none" xmlns="http://www.w3.org/2000/svg">
<path d="M15.3741 31.9625H2V41.6559H15.3741V31.9625Z" stroke="#1A2578" stroke-width="1.5" stroke-linecap="round" stroke-linejoin="round"/>
<path d="M28.8706 26.4412H15.374V41.6557H28.8706V26.4412Z" stroke="#1A2578" stroke-width="1.5" stroke-linecap="round" stroke-linejoin="round"/>
<path d="M41.9998 20.2847H28.8706V41.6558H41.9998V20.2847Z" stroke="#1A2578" stroke-width="1.5" stroke-linecap="round" stroke-linejoin="round"/>
<path d="M24.7662 6.73511H7.75439V20.2863H24.7662V6.73511Z" stroke="#BF0830" stroke-width="1.5" stroke-linecap="round" stroke-linejoin="round"/>
<path d="M7.75439 6.73511V10.631C7.75439 11.1468 7.95928 11.6414 8.32397 12.0061C8.68866 12.3708 9.18328 12.5756 9.69903 12.5756H22.8233C23.3387 12.5752 23.8329 12.3701 24.1973 12.0055C24.5616 11.6408 24.7662 11.1465 24.7662 10.631V6.73511H7.75439Z" stroke="#BF0830" stroke-width="1.5" stroke-linecap="round" stroke-linejoin="round"/>
<path d="M13.5967 14.6774V12.5756" stroke="#BF0830" stroke-width="1.5" stroke-linecap="round" stroke-linejoin="round"/>
<path d="M19.0796 14.6774V12.5756" stroke="#BF0830" stroke-width="1.5" stroke-linecap="round" stroke-linejoin="round"/>
<path d="M12.7759 6.73512V3.4549H19.7964V6.73512" stroke="#BF0830" stroke-width="1.5" stroke-linecap="round" stroke-linejoin="round"/>
</svg>
