<svg width="44" height="45" viewBox="0 0 44 45" fill="none" xmlns="http://www.w3.org/2000/svg">
<path d="M23.0255 19.6204V37.9275C23.0257 38.4513 22.9228 38.9701 22.7225 39.4541C22.5221 39.9381 22.2284 40.3779 21.8581 40.7484C21.4877 41.1189 21.0481 41.4128 20.5641 41.6133C20.0802 41.8138 19.5615 41.917 19.0377 41.917V41.917C18.5138 41.917 17.9951 41.8138 17.5112 41.6133C17.0273 41.4128 16.5876 41.1189 16.2173 40.7484C15.8469 40.3779 15.5532 39.9381 15.3529 39.4541C15.1526 38.9701 15.0496 38.4513 15.0498 37.9275V35.5057" stroke="#BF0830" stroke-width="1.5" stroke-linecap="round" stroke-linejoin="round"/>
<path d="M4 22.3312C4 22.3312 6.81086 5.49493 23.0255 5.49493C39.2402 5.49493 41 22.3312 41 22.3312C41 22.3312 35.1264 16.7514 28.6667 22.3312C28.6667 22.3312 21.6193 15.6745 16.1364 22.3312C16.1364 22.3312 9.67666 16.1637 4 22.3312Z" stroke="#1A2578" stroke-width="1.5" stroke-linecap="round" stroke-linejoin="round"/>
<path d="M23.0254 5.49494V2.5" stroke="#BF0830" stroke-width="1.5" stroke-linecap="round" stroke-linejoin="round"/>
</svg>
