<svg width="44" height="45" viewBox="0 0 44 45" fill="none" xmlns="http://www.w3.org/2000/svg">
<path d="M7.25721 40.8564C10.1607 40.8564 12.5144 38.5027 12.5144 35.5992C12.5144 32.6957 10.1607 30.342 7.25721 30.342C4.35373 30.342 2 32.6957 2 35.5992C2 38.5027 4.35373 40.8564 7.25721 40.8564Z" stroke="#1A2578" stroke-width="1.5" stroke-linecap="round" stroke-linejoin="round"/>
<path d="M36.9802 41.3313C39.7525 41.3313 41.9999 39.0839 41.9999 36.3116C41.9999 33.5393 39.7525 31.2919 36.9802 31.2919C34.2079 31.2919 31.9604 33.5393 31.9604 36.3116C31.9604 39.0839 34.2079 41.3313 36.9802 41.3313Z" stroke="#1A2578" stroke-width="1.5" stroke-linecap="round" stroke-linejoin="round"/>
<path d="M35.0042 11.6083C36.9904 11.6083 38.6006 9.9981 38.6006 8.01184C38.6006 6.02558 36.9904 4.41541 35.0042 4.41541C33.0179 4.41541 31.4077 6.02558 31.4077 8.01184C31.4077 9.9981 33.0179 11.6083 35.0042 11.6083Z" stroke="#1A2578" stroke-width="1.5" stroke-linecap="round" stroke-linejoin="round"/>
<path d="M7.92911 10.738C9.84979 10.738 11.4068 9.18103 11.4068 7.26035C11.4068 5.33967 9.84979 3.78265 7.92911 3.78265C6.00843 3.78265 4.45142 5.33967 4.45142 7.26035C4.45142 9.18103 6.00843 10.738 7.92911 10.738Z" stroke="#1A2578" stroke-width="1.5" stroke-linecap="round" stroke-linejoin="round"/>
<path d="M21.921 30.8968C27.3785 30.8968 31.8027 26.4726 31.8027 21.0151C31.8027 15.5576 27.3785 11.1334 21.921 11.1334C16.4635 11.1334 12.0393 15.5576 12.0393 21.0151C12.0393 26.4726 16.4635 30.8968 21.921 30.8968Z" stroke="#BF0830" stroke-width="1.5" stroke-linecap="round" stroke-linejoin="round"/>
<path d="M21.6838 27.1815C24.8712 27.1815 27.455 24.5977 27.455 21.4103C27.455 18.223 24.8712 15.6391 21.6838 15.6391C18.4965 15.6391 15.9126 18.223 15.9126 21.4103C15.9126 24.5977 18.4965 27.1815 21.6838 27.1815Z" stroke="#BF0830" stroke-width="1.5" stroke-linecap="round" stroke-linejoin="round"/>
<path d="M10.1021 9.97516L17.643 17.2917" stroke="#1A2578" stroke-width="1.5" stroke-linecap="round" stroke-linejoin="round"/>
<path d="M32.3835 10.4745L25.9666 17.5437" stroke="#1A2578" stroke-width="1.5" stroke-linecap="round" stroke-linejoin="round"/>
<path d="M33.2765 32.9218L25.9666 25.2767" stroke="#1A2578" stroke-width="1.5" stroke-linecap="round" stroke-linejoin="round"/>
<path d="M11.21 32.1362L17.6432 25.5289" stroke="#1A2578" stroke-width="1.5" stroke-linecap="round" stroke-linejoin="round"/>
</svg>
